<svg width="56" height="56" viewBox="0 0 56 56" fill="none" xmlns="http://www.w3.org/2000/svg">
<circle cx="28" cy="28" r="28" fill="#D9D9D9" fill-opacity="0.15"/>
<path d="M41.4868 33.6706C40.5753 36.5386 38.4148 38.9828 35.4323 40.5201C32.4498 42.0575 28.8622 42.5762 25.3785 41.9738C21.8948 41.3714 18.7684 39.6917 16.617 37.2665C14.4657 34.8414 13.4459 31.8473 13.7592 28.8759L15.3043 29.0287C15.0253 31.6739 15.9332 34.3394 17.8483 36.4983C19.7635 38.6572 22.5467 40.1525 25.648 40.6888C28.7493 41.2251 31.943 40.7633 34.5982 39.3947C37.2533 38.0261 39.1766 35.8503 39.9881 33.2971L41.4868 33.6706Z" fill="white"/>
<path d="M14.8708 24.6631L17.4806 29.2485L11.5419 28.7566L14.8708 24.6631Z" fill="white"/>
<path d="M14.1337 22.3294C15.0453 19.4614 17.2058 17.0172 20.1883 15.4799C23.1708 13.9425 26.7583 13.4238 30.242 14.0262C33.7257 14.6286 36.8521 16.3083 39.0034 18.7335C41.1548 21.1586 42.1745 24.1527 41.8612 27.1241L40.3162 26.9713C40.5951 24.3261 39.6873 21.6606 37.7721 19.5017C35.8569 17.3428 33.0737 15.8475 29.9725 15.3112C26.8712 14.7749 23.6775 15.2367 21.0224 16.6053C18.3673 17.9739 16.444 20.1497 15.6325 22.7029L14.1337 22.3294Z" fill="white"/>
<path d="M40.7497 31.3369L38.1398 26.7515L44.0785 27.2435L40.7497 31.3369Z" fill="white"/>
</svg>
