<svg width="560" height="560" viewBox="0 0 560 560" fill="none" xmlns="http://www.w3.org/2000/svg">
<g clip-path="url(#clip0_520_7)">
<path d="M280 560C434.64 560 560 434.64 560 280C560 125.36 434.64 0 280 0C125.36 0 0 125.36 0 280C0 434.64 125.36 560 280 560Z" fill="white"/>
<path d="M455 230.877C455 325.517 376.478 402.5 280 402.5C183.522 402.5 105 325.5 105 230.912C105 223.947 105.42 216.965 106.295 210.035H137.725C136.675 216.947 136.15 223.93 136.15 230.912C136.15 308.7 200.69 371.997 280.017 371.997C355.722 371.997 417.953 314.388 423.518 241.535H200.9C205.625 275.555 232.452 302.575 266.997 308.157C301.56 313.722 335.773 296.538 351.383 265.808H385.07C369.758 309.943 327.495 339.623 279.965 339.658C218.785 339.658 168.997 290.85 168.997 230.877C168.997 223.877 169.698 216.878 171.045 210H453.705C454.58 216.93 455 223.895 455 230.877Z" fill="url(#paint0_linear_520_7)"/>
</g>
<defs>
<linearGradient id="paint0_linear_520_7" x1="280" y1="210" x2="280" y2="402.5" gradientUnits="userSpaceOnUse">
<stop stop-color="#010027"/>
<stop offset="1" stop-color="#0A0146"/>
</linearGradient>
<clipPath id="clip0_520_7">
<rect width="560" height="560" fill="white"/>
</clipPath>
</defs>
</svg>
