<svg width="560" height="714" viewBox="0 0 560 714" fill="none" xmlns="http://www.w3.org/2000/svg">
<g clip-path="url(#clip0_502_3)">
<path d="M280 560C434.64 560 560 434.64 560 280C560 125.36 434.64 0 280 0C125.36 0 0 125.36 0 280C0 434.64 125.36 560 280 560Z" fill="url(#paint0_linear_502_3)"/>
<path d="M455 230.877C455 325.517 376.478 402.5 280 402.5C183.522 402.5 105 325.5 105 230.912C105 223.947 105.42 216.965 106.295 210.035H137.725C136.675 216.947 136.15 223.93 136.15 230.912C136.15 308.7 200.69 371.997 280.017 371.997C355.722 371.997 417.953 314.388 423.518 241.535H200.9C205.625 275.555 232.452 302.575 266.997 308.157C301.56 313.722 335.773 296.538 351.383 265.808H385.07C369.758 309.943 327.495 339.623 279.965 339.658C218.785 339.658 168.997 290.85 168.997 230.877C168.997 223.877 169.698 216.878 171.045 210H453.705C454.58 216.93 455 223.895 455 230.877Z" fill="white"/>
</g>
<path d="M92.368 672.848H114.832C114.96 673.36 115.067 673.979 115.152 674.704C115.237 675.429 115.28 676.155 115.28 676.88C115.28 679.824 114.832 682.597 113.936 685.2C113.04 687.803 111.632 690.128 109.712 692.176C107.664 694.352 105.211 696.037 102.352 697.232C99.4933 698.427 96.2293 699.024 92.56 699.024C89.232 699.024 86.096 698.427 83.152 697.232C80.208 696.037 77.648 694.373 75.472 692.24C73.296 690.107 71.568 687.589 70.288 684.688C69.008 681.744 68.368 678.544 68.368 675.088C68.368 671.632 69.008 668.453 70.288 665.552C71.568 662.608 73.296 660.069 75.472 657.936C77.648 655.803 80.208 654.139 83.152 652.944C86.096 651.749 89.232 651.152 92.56 651.152C96.272 651.152 99.5787 651.792 102.48 653.072C105.424 654.352 107.941 656.123 110.032 658.384L104.08 664.208C102.587 662.629 100.923 661.435 99.088 660.624C97.2533 659.771 95.056 659.344 92.496 659.344C90.4053 659.344 88.4213 659.728 86.544 660.496C84.6667 661.221 83.024 662.267 81.616 663.632C80.208 664.997 79.0773 666.661 78.224 668.624C77.4133 670.544 77.008 672.699 77.008 675.088C77.008 677.477 77.4133 679.653 78.224 681.616C79.0773 683.536 80.208 685.179 81.616 686.544C83.0667 687.909 84.7307 688.976 86.608 689.744C88.4853 690.469 90.4907 690.832 92.624 690.832C95.056 690.832 97.104 690.491 98.768 689.808C100.475 689.083 101.925 688.165 103.12 687.056C103.973 686.288 104.699 685.328 105.296 684.176C105.936 682.981 106.427 681.659 106.768 680.208H92.368V672.848ZM150.78 690.448C149.329 693.008 147.367 695.077 144.892 696.656C142.46 698.235 139.473 699.024 135.932 699.024C133.543 699.024 131.324 698.619 129.276 697.808C127.271 696.955 125.521 695.781 124.028 694.288C122.535 692.795 121.361 691.045 120.508 689.04C119.697 686.992 119.292 684.752 119.292 682.32C119.292 680.059 119.697 677.925 120.508 675.92C121.319 673.872 122.449 672.101 123.9 670.608C125.351 669.072 127.057 667.856 129.02 666.96C131.025 666.064 133.223 665.616 135.612 665.616C138.129 665.616 140.369 666.043 142.332 666.896C144.295 667.707 145.937 668.859 147.26 670.352C148.583 671.803 149.585 673.531 150.268 675.536C150.951 677.541 151.292 679.717 151.292 682.064C151.292 682.363 151.292 682.619 151.292 682.832C151.249 683.088 151.228 683.323 151.228 683.536C151.185 683.749 151.164 683.984 151.164 684.24H127.548C127.719 685.52 128.06 686.629 128.572 687.568C129.127 688.464 129.788 689.232 130.556 689.872C131.367 690.469 132.241 690.917 133.18 691.216C134.119 691.472 135.079 691.6 136.06 691.6C137.98 691.6 139.559 691.173 140.796 690.32C142.076 689.424 143.079 688.315 143.804 686.992L150.78 690.448ZM143.164 678.288C143.121 677.733 142.929 677.115 142.588 676.432C142.289 675.749 141.82 675.109 141.18 674.512C140.583 673.915 139.815 673.424 138.876 673.04C137.98 672.656 136.892 672.464 135.612 672.464C133.82 672.464 132.241 672.976 130.876 674C129.511 675.024 128.551 676.453 127.996 678.288H143.164ZM164.519 670.736H165.031C166.012 669.157 167.335 667.92 168.999 667.024C170.663 666.085 172.561 665.616 174.695 665.616C176.657 665.616 178.385 665.936 179.879 666.576C181.372 667.216 182.588 668.133 183.527 669.328C184.508 670.48 185.233 671.888 185.703 673.552C186.215 675.173 186.471 676.987 186.471 678.992V698H178.087V680.016C178.087 677.755 177.575 676.091 176.551 675.024C175.569 673.915 174.119 673.36 172.199 673.36C171.047 673.36 170.023 673.616 169.127 674.128C168.273 674.597 167.527 675.259 166.887 676.112C166.289 676.923 165.82 677.904 165.479 679.056C165.18 680.165 165.031 681.36 165.031 682.64V698H156.647V666.64H164.519V670.736ZM223.093 690.448C221.642 693.008 219.679 695.077 217.205 696.656C214.773 698.235 211.786 699.024 208.245 699.024C205.855 699.024 203.637 698.619 201.589 697.808C199.583 696.955 197.834 695.781 196.341 694.288C194.847 692.795 193.674 691.045 192.821 689.04C192.01 686.992 191.605 684.752 191.605 682.32C191.605 680.059 192.01 677.925 192.821 675.92C193.631 673.872 194.762 672.101 196.213 670.608C197.663 669.072 199.37 667.856 201.333 666.96C203.338 666.064 205.535 665.616 207.925 665.616C210.442 665.616 212.682 666.043 214.645 666.896C216.607 667.707 218.25 668.859 219.573 670.352C220.895 671.803 221.898 673.531 222.581 675.536C223.263 677.541 223.604 679.717 223.604 682.064C223.604 682.363 223.604 682.619 223.604 682.832C223.562 683.088 223.541 683.323 223.541 683.536C223.498 683.749 223.477 683.984 223.477 684.24H199.861C200.031 685.52 200.373 686.629 200.885 687.568C201.439 688.464 202.101 689.232 202.869 689.872C203.679 690.469 204.554 690.917 205.493 691.216C206.431 691.472 207.391 691.6 208.373 691.6C210.293 691.6 211.871 691.173 213.109 690.32C214.389 689.424 215.391 688.315 216.117 686.992L223.093 690.448ZM215.477 678.288C215.434 677.733 215.242 677.115 214.901 676.432C214.602 675.749 214.133 675.109 213.493 674.512C212.895 673.915 212.127 673.424 211.189 673.04C210.293 672.656 209.205 672.464 207.925 672.464C206.133 672.464 204.554 672.976 203.189 674C201.823 675.024 200.863 676.453 200.309 678.288H215.477ZM241.688 699.024C239.64 699.024 237.805 698.768 236.184 698.256C234.605 697.744 233.218 697.083 232.024 696.272C230.872 695.419 229.89 694.459 229.08 693.392C228.269 692.283 227.65 691.173 227.224 690.064L234.712 686.864C235.437 688.485 236.397 689.701 237.592 690.512C238.829 691.28 240.194 691.664 241.688 691.664C243.224 691.664 244.44 691.387 245.336 690.832C246.232 690.277 246.68 689.616 246.68 688.848C246.68 687.995 246.296 687.312 245.528 686.8C244.802 686.245 243.522 685.755 241.688 685.328L237.272 684.368C236.29 684.155 235.266 683.813 234.2 683.344C233.176 682.875 232.237 682.277 231.384 681.552C230.53 680.827 229.826 679.952 229.272 678.928C228.717 677.904 228.44 676.709 228.44 675.344C228.44 673.808 228.76 672.443 229.4 671.248C230.082 670.053 231 669.051 232.152 668.24C233.304 667.387 234.648 666.747 236.184 666.32C237.762 665.851 239.448 665.616 241.24 665.616C244.226 665.616 246.893 666.213 249.24 667.408C251.586 668.56 253.314 670.416 254.424 672.976L247.192 675.92C246.594 674.683 245.72 673.787 244.568 673.232C243.416 672.677 242.264 672.4 241.112 672.4C239.917 672.4 238.872 672.656 237.976 673.168C237.08 673.637 236.632 674.256 236.632 675.024C236.632 675.749 236.994 676.325 237.72 676.752C238.488 677.179 239.512 677.563 240.792 677.904L245.592 679.056C248.792 679.824 251.16 681.061 252.696 682.768C254.274 684.432 255.064 686.416 255.064 688.72C255.064 690.085 254.744 691.387 254.104 692.624C253.464 693.861 252.546 694.971 251.352 695.952C250.2 696.891 248.792 697.637 247.128 698.192C245.506 698.747 243.693 699.024 241.688 699.024ZM264.569 662.096C263.843 662.096 263.139 661.968 262.457 661.712C261.817 661.413 261.241 661.029 260.729 660.56C260.259 660.048 259.875 659.472 259.577 658.832C259.321 658.192 259.193 657.488 259.193 656.72C259.193 655.952 259.321 655.248 259.577 654.608C259.875 653.968 260.259 653.413 260.729 652.944C261.241 652.432 261.817 652.048 262.457 651.792C263.139 651.493 263.843 651.344 264.569 651.344C266.062 651.344 267.342 651.877 268.409 652.944C269.475 653.968 270.009 655.227 270.009 656.72C270.009 658.213 269.475 659.493 268.409 660.56C267.342 661.584 266.062 662.096 264.569 662.096ZM260.409 698V666.64H268.793V698H260.409ZM288.875 699.024C286.827 699.024 284.992 698.768 283.371 698.256C281.792 697.744 280.406 697.083 279.211 696.272C278.059 695.419 277.078 694.459 276.267 693.392C275.456 692.283 274.838 691.173 274.411 690.064L281.899 686.864C282.624 688.485 283.584 689.701 284.779 690.512C286.016 691.28 287.382 691.664 288.875 691.664C290.411 691.664 291.627 691.387 292.523 690.832C293.419 690.277 293.867 689.616 293.867 688.848C293.867 687.995 293.483 687.312 292.715 686.8C291.99 686.245 290.71 685.755 288.875 685.328L284.459 684.368C283.478 684.155 282.454 683.813 281.387 683.344C280.363 682.875 279.424 682.277 278.571 681.552C277.718 680.827 277.014 679.952 276.459 678.928C275.904 677.904 275.627 676.709 275.627 675.344C275.627 673.808 275.947 672.443 276.587 671.248C277.27 670.053 278.187 669.051 279.339 668.24C280.491 667.387 281.835 666.747 283.371 666.32C284.95 665.851 286.635 665.616 288.427 665.616C291.414 665.616 294.08 666.213 296.427 667.408C298.774 668.56 300.502 670.416 301.611 672.976L294.379 675.92C293.782 674.683 292.907 673.787 291.755 673.232C290.603 672.677 289.451 672.4 288.299 672.4C287.104 672.4 286.059 672.656 285.163 673.168C284.267 673.637 283.819 674.256 283.819 675.024C283.819 675.749 284.182 676.325 284.907 676.752C285.675 677.179 286.699 677.563 287.979 677.904L292.779 679.056C295.979 679.824 298.347 681.061 299.883 682.768C301.462 684.432 302.251 686.416 302.251 688.72C302.251 690.085 301.931 691.387 301.291 692.624C300.651 693.861 299.734 694.971 298.539 695.952C297.387 696.891 295.979 697.637 294.315 698.192C292.694 698.747 290.88 699.024 288.875 699.024ZM316.081 652.176H325.425L334.897 679.76L336.561 685.648H337.073L338.865 679.76L348.721 652.176H358.065L341.361 698H332.273L316.081 652.176ZM365.819 662.096C365.093 662.096 364.389 661.968 363.707 661.712C363.067 661.413 362.491 661.029 361.979 660.56C361.509 660.048 361.125 659.472 360.827 658.832C360.571 658.192 360.443 657.488 360.443 656.72C360.443 655.952 360.571 655.248 360.827 654.608C361.125 653.968 361.509 653.413 361.979 652.944C362.491 652.432 363.067 652.048 363.707 651.792C364.389 651.493 365.093 651.344 365.819 651.344C367.312 651.344 368.592 651.877 369.659 652.944C370.725 653.968 371.259 655.227 371.259 656.72C371.259 658.213 370.725 659.493 369.659 660.56C368.592 661.584 367.312 662.096 365.819 662.096ZM361.659 698V666.64H370.043V698H361.659ZM390.125 699.024C388.077 699.024 386.242 698.768 384.621 698.256C383.042 697.744 381.656 697.083 380.461 696.272C379.309 695.419 378.328 694.459 377.517 693.392C376.706 692.283 376.088 691.173 375.661 690.064L383.149 686.864C383.874 688.485 384.834 689.701 386.029 690.512C387.266 691.28 388.632 691.664 390.125 691.664C391.661 691.664 392.877 691.387 393.773 690.832C394.669 690.277 395.117 689.616 395.117 688.848C395.117 687.995 394.733 687.312 393.965 686.8C393.24 686.245 391.96 685.755 390.125 685.328L385.709 684.368C384.728 684.155 383.704 683.813 382.637 683.344C381.613 682.875 380.674 682.277 379.821 681.552C378.968 680.827 378.264 679.952 377.709 678.928C377.154 677.904 376.877 676.709 376.877 675.344C376.877 673.808 377.197 672.443 377.837 671.248C378.52 670.053 379.437 669.051 380.589 668.24C381.741 667.387 383.085 666.747 384.621 666.32C386.2 665.851 387.885 665.616 389.677 665.616C392.664 665.616 395.33 666.213 397.677 667.408C400.024 668.56 401.752 670.416 402.861 672.976L395.629 675.92C395.032 674.683 394.157 673.787 393.005 673.232C391.853 672.677 390.701 672.4 389.549 672.4C388.354 672.4 387.309 672.656 386.413 673.168C385.517 673.637 385.069 674.256 385.069 675.024C385.069 675.749 385.432 676.325 386.157 676.752C386.925 677.179 387.949 677.563 389.229 677.904L394.029 679.056C397.229 679.824 399.597 681.061 401.133 682.768C402.712 684.432 403.501 686.416 403.501 688.72C403.501 690.085 403.181 691.387 402.541 692.624C401.901 693.861 400.984 694.971 399.789 695.952C398.637 696.891 397.229 697.637 395.565 698.192C393.944 698.747 392.13 699.024 390.125 699.024ZM413.006 662.096C412.281 662.096 411.577 661.968 410.894 661.712C410.254 661.413 409.678 661.029 409.166 660.56C408.697 660.048 408.313 659.472 408.014 658.832C407.758 658.192 407.63 657.488 407.63 656.72C407.63 655.952 407.758 655.248 408.014 654.608C408.313 653.968 408.697 653.413 409.166 652.944C409.678 652.432 410.254 652.048 410.894 651.792C411.577 651.493 412.281 651.344 413.006 651.344C414.499 651.344 415.779 651.877 416.846 652.944C417.913 653.968 418.446 655.227 418.446 656.72C418.446 658.213 417.913 659.493 416.846 660.56C415.779 661.584 414.499 662.096 413.006 662.096ZM408.846 698V666.64H417.23V698H408.846ZM439.432 665.616C441.864 665.616 444.083 666.043 446.088 666.896C448.136 667.707 449.885 668.859 451.336 670.352C452.829 671.803 453.981 673.552 454.792 675.6C455.645 677.648 456.072 679.888 456.072 682.32C456.072 684.752 455.645 686.992 454.792 689.04C453.981 691.088 452.829 692.859 451.336 694.352C449.885 695.803 448.136 696.955 446.088 697.808C444.083 698.619 441.864 699.024 439.432 699.024C437 699.024 434.76 698.619 432.712 697.808C430.707 696.955 428.957 695.803 427.464 694.352C426.013 692.859 424.861 691.088 424.008 689.04C423.197 686.992 422.792 684.752 422.792 682.32C422.792 679.888 423.197 677.648 424.008 675.6C424.861 673.552 426.013 671.803 427.464 670.352C428.957 668.859 430.707 667.707 432.712 666.896C434.76 666.043 437 665.616 439.432 665.616ZM439.432 691.28C440.499 691.28 441.523 691.088 442.504 690.704C443.528 690.277 444.424 689.68 445.192 688.912C445.96 688.144 446.557 687.205 446.984 686.096C447.453 684.987 447.688 683.728 447.688 682.32C447.688 680.912 447.453 679.653 446.984 678.544C446.557 677.435 445.96 676.496 445.192 675.728C444.424 674.96 443.528 674.384 442.504 674C441.523 673.573 440.499 673.36 439.432 673.36C438.323 673.36 437.277 673.573 436.296 674C435.315 674.384 434.44 674.96 433.672 675.728C432.904 676.496 432.285 677.435 431.816 678.544C431.389 679.653 431.176 680.912 431.176 682.32C431.176 683.728 431.389 684.987 431.816 686.096C432.285 687.205 432.904 688.144 433.672 688.912C434.44 689.68 435.315 690.277 436.296 690.704C437.277 691.088 438.323 691.28 439.432 691.28ZM468.706 670.736H469.218C470.199 669.157 471.522 667.92 473.186 667.024C474.85 666.085 476.749 665.616 478.882 665.616C480.845 665.616 482.573 665.936 484.066 666.576C485.559 667.216 486.775 668.133 487.714 669.328C488.695 670.48 489.421 671.888 489.89 673.552C490.402 675.173 490.658 676.987 490.658 678.992V698H482.274V680.016C482.274 677.755 481.762 676.091 480.738 675.024C479.757 673.915 478.306 673.36 476.386 673.36C475.234 673.36 474.21 673.616 473.314 674.128C472.461 674.597 471.714 675.259 471.074 676.112C470.477 676.923 470.007 677.904 469.666 679.056C469.367 680.165 469.218 681.36 469.218 682.64V698H460.834V666.64H468.706V670.736Z" fill="url(#paint1_linear_502_3)"/>
<defs>
<linearGradient id="paint0_linear_502_3" x1="280" y1="0" x2="280" y2="560" gradientUnits="userSpaceOnUse">
<stop stop-color="#010027"/>
<stop offset="1" stop-color="#0A0146"/>
</linearGradient>
<linearGradient id="paint1_linear_502_3" x1="66" y1="675" x2="494" y2="675" gradientUnits="userSpaceOnUse">
<stop stop-color="#0C192B"/>
<stop offset="1" stop-color="#0A0146"/>
</linearGradient>
<clipPath id="clip0_502_3">
<rect width="560" height="560" fill="white"/>
</clipPath>
</defs>
</svg>
