<svg width="48" height="48" viewBox="0 0 48 48" fill="none" xmlns="http://www.w3.org/2000/svg">
<circle cx="24" cy="24" r="24" fill="#252855"/>
<path d="M14.6667 21.3333C13.2 21.3333 12 22.5333 12 24C12 25.4667 13.2 26.6667 14.6667 26.6667C16.1333 26.6667 17.3333 25.4667 17.3333 24C17.3333 22.5333 16.1333 21.3333 14.6667 21.3333ZM33.3333 21.3333C31.8667 21.3333 30.6667 22.5333 30.6667 24C30.6667 25.4667 31.8667 26.6667 33.3333 26.6667C34.8 26.6667 36 25.4667 36 24C36 22.5333 34.8 21.3333 33.3333 21.3333ZM24 21.3333C22.5333 21.3333 21.3333 22.5333 21.3333 24C21.3333 25.4667 22.5333 26.6667 24 26.6667C25.4667 26.6667 26.6667 25.4667 26.6667 24C26.6667 22.5333 25.4667 21.3333 24 21.3333Z" fill="white"/>
</svg>
