<svg width="96" height="96" viewBox="0 0 96 96" fill="none" xmlns="http://www.w3.org/2000/svg">
<circle cx="48" cy="48" r="48" fill="url(#paint0_linear_262_106)"/>
<path d="M48 33.75C45.3766 33.75 43.25 35.8767 43.25 38.5V46.4167C43.25 49.04 45.3766 51.1667 48 51.1667C50.6234 51.1667 52.75 49.04 52.75 46.4167V38.5C52.75 35.8767 50.6234 33.75 48 33.75ZM49.5833 60.5797V63.0417C49.5833 63.9161 48.8745 64.625 48 64.625C47.1255 64.625 46.4167 63.9161 46.4167 63.0417V60.5797C39.2917 59.7921 33.75 53.7516 33.75 46.4167C33.75 45.5422 34.4589 44.8333 35.3333 44.8333C36.2078 44.8333 36.9167 45.5422 36.9167 46.4167C36.9167 52.5378 41.8788 57.5 48 57.5C54.1212 57.5 59.0833 52.5378 59.0833 46.4167C59.0833 45.5422 59.7922 44.8333 60.6667 44.8333C61.5411 44.8333 62.25 45.5422 62.25 46.4167C62.25 53.7516 56.7083 59.7921 49.5833 60.5797ZM48 30.5833C52.3723 30.5833 55.9167 34.1278 55.9167 38.5V46.4167C55.9167 50.7889 52.3723 54.3333 48 54.3333C43.6277 54.3333 40.0833 50.7889 40.0833 46.4167V38.5C40.0833 34.1278 43.6277 30.5833 48 30.5833Z" fill="white"/>
<defs>
<linearGradient id="paint0_linear_262_106" x1="0" y1="48" x2="96" y2="48" gradientUnits="userSpaceOnUse">
<stop stop-color="#2193B0"/>
<stop offset="1" stop-color="#6DD5ED"/>
</linearGradient>
</defs>
</svg>
